<svg width="26" height="26" viewBox="0 0 26 26" fill="none" xmlns="http://www.w3.org/2000/svg">
<g clip-path="url(#clip0_1_57)">
<path d="M15.3 2.87083C14.925 2.58955 14.4688 2.4375 14 2.4375C13.5312 2.4375 13.075 2.58955 12.7 2.87083L5.11667 8.55833C4.84758 8.76015 4.62917 9.02185 4.47874 9.3227C4.32831 9.62356 4.25 9.9553 4.25 10.2917V20.5833C4.25 21.158 4.47827 21.7091 4.8846 22.1154C5.29093 22.5217 5.84203 22.75 6.41667 22.75H10.6417C10.9577 22.75 11.2608 22.6245 11.4843 22.401C11.7078 22.1775 11.8333 21.8744 11.8333 21.5583V16.25C11.8333 15.6754 12.0616 15.1243 12.4679 14.7179C12.8743 14.3116 13.4254 14.0833 14 14.0833C14.5746 14.0833 15.1257 14.3116 15.5321 14.7179C15.9384 15.1243 16.1667 15.6754 16.1667 16.25V21.5583C16.1667 21.8744 16.2922 22.1775 16.5157 22.401C16.7392 22.6245 17.0423 22.75 17.3583 22.75H21.5833C22.158 22.75 22.7091 22.5217 23.1154 22.1154C23.5217 21.7091 23.75 21.158 23.75 20.5833V10.2917C23.75 9.9553 23.6717 9.62356 23.5213 9.3227C23.3708 9.02185 23.1524 8.76015 22.8833 8.55833L15.3 2.87083Z" fill="black"/>
</g>
<defs>
<clipPath id="clip0_1_57">
<rect width="26" height="26" fill="white"/>
</clipPath>
</defs>
</svg>
