<svg width="25" height="26" viewBox="0 0 25 26" fill="none" xmlns="http://www.w3.org/2000/svg">
<path d="M14.3 2.87083C13.925 2.58955 13.4688 2.4375 13 2.4375C12.5312 2.4375 12.075 2.58955 11.7 2.87083L4.11667 8.55833C3.84758 8.76015 3.62917 9.02185 3.47874 9.3227C3.32831 9.62356 3.25 9.9553 3.25 10.2917V20.5833C3.25 21.158 3.47827 21.7091 3.8846 22.1154C4.29093 22.5217 4.84203 22.75 5.41667 22.75H9.64167C9.95772 22.75 10.2608 22.6245 10.4843 22.401C10.7078 22.1775 10.8333 21.8744 10.8333 21.5583V16.25C10.8333 15.6754 11.0616 15.1243 11.4679 14.7179C11.8743 14.3116 12.4254 14.0833 13 14.0833C13.5746 14.0833 14.1257 14.3116 14.5321 14.7179C14.9384 15.1243 15.1667 15.6754 15.1667 16.25V21.5583C15.1667 21.8744 15.2922 22.1775 15.5157 22.401C15.7392 22.6245 16.0423 22.75 16.3583 22.75H20.5833C21.158 22.75 21.7091 22.5217 22.1154 22.1154C22.5217 21.7091 22.75 21.158 22.75 20.5833V10.2917C22.75 9.9553 22.6717 9.62356 22.5213 9.3227C22.3708 9.02185 22.1524 8.76015 21.8833 8.55833L14.3 2.87083Z" fill="black"/>
</svg>
