<svg width="26" height="26" viewBox="0 0 26 26" fill="none" xmlns="http://www.w3.org/2000/svg">
<path fill-rule="evenodd" clip-rule="evenodd" d="M4.3335 5.41667C4.3335 4.55472 4.67591 3.72807 5.2854 3.11857C5.89489 2.50908 6.72154 2.16667 7.5835 2.16667H18.4168C19.2788 2.16667 20.1054 2.50908 20.7149 3.11857C21.3244 3.72807 21.6668 4.55472 21.6668 5.41667V22.7803C21.6668 24.102 20.1718 24.8712 19.0972 24.1031L13.0002 19.7481L6.90316 24.1031C5.82741 24.8723 4.3335 24.1031 4.3335 22.7814V5.41667ZM7.5835 4.33334C7.29618 4.33334 7.02063 4.44748 6.81746 4.65064C6.6143 4.8538 6.50016 5.12935 6.50016 5.41667V21.7284L12.0555 17.7602C12.3311 17.5632 12.6614 17.4574 13.0002 17.4574C13.3389 17.4574 13.6692 17.5632 13.9448 17.7602L19.5002 21.7284V5.41667C19.5002 5.12935 19.386 4.8538 19.1829 4.65064C18.9797 4.44748 18.7041 4.33334 18.4168 4.33334H7.5835Z" fill="black"/>
</svg>
