<svg width="26" height="26" viewBox="0 0 26 26" fill="none" xmlns="http://www.w3.org/2000/svg">
<path fill-rule="evenodd" clip-rule="evenodd" d="M16.0595 4.94758C16.2188 4.71076 16.2782 4.42063 16.2249 4.14024C16.1715 3.85985 16.0096 3.61186 15.7744 3.45016C15.5392 3.28846 15.2497 3.22611 14.9688 3.27667C14.6878 3.32723 14.4382 3.4866 14.2742 3.72016L13.0002 5.57266L11.7262 3.72016C11.6462 3.60136 11.5436 3.49958 11.4241 3.42071C11.3046 3.34183 11.1706 3.28743 11.0299 3.26065C10.8893 3.23387 10.7447 3.23524 10.6046 3.26467C10.4645 3.29411 10.3316 3.35103 10.2136 3.43215C10.0956 3.51327 9.99484 3.61697 9.91717 3.73727C9.83951 3.85756 9.78646 3.99206 9.7611 4.13298C9.73574 4.2739 9.73857 4.41845 9.76941 4.55827C9.80026 4.69809 9.85853 4.83041 9.94083 4.94758L11.685 7.48474L2.68141 20.5833H2.16683C1.87951 20.5833 1.60396 20.6975 1.4008 20.9006C1.19763 21.1038 1.0835 21.3793 1.0835 21.6667C1.0835 21.954 1.19763 22.2295 1.4008 22.4327C1.60396 22.6359 1.87951 22.75 2.16683 22.75H23.8335C24.1208 22.75 24.3964 22.6359 24.5995 22.4327C24.8027 22.2295 24.9168 21.954 24.9168 21.6667C24.9168 21.3793 24.8027 21.1038 24.5995 20.9006C24.3964 20.6975 24.1208 20.5833 23.8335 20.5833H23.32L14.3153 7.48583L16.0595 4.94758ZM17.3183 20.5833H20.6907L13.0002 9.39683L5.30958 20.5833H8.68308L12.101 15.6466C12.2017 15.5013 12.3361 15.3826 12.4927 15.3007C12.6493 15.2187 12.8234 15.1759 13.0002 15.1759C13.1769 15.1759 13.351 15.2187 13.5076 15.3007C13.6642 15.3826 13.7986 15.5013 13.8993 15.6466L17.3183 20.5833ZM11.3177 20.5833H14.6826L13.0002 18.1534L11.3177 20.5833Z" fill="black"/>
</svg>
