<svg width="15" height="16" viewBox="0 0 15 16" fill="none" xmlns="http://www.w3.org/2000/svg">
  <path d="M6.3949 6.89437C6.96186 6.32746 7.72502 6.00014 8.52654 5.98013C9.32806 5.96012 10.1066 6.24895 10.7011 6.78687L10.8143 6.89437L12.5818 8.6625C13.1574 9.23917 13.4851 10.0179 13.4949 10.8326C13.5047 11.6474 13.1959 12.4337 12.6343 13.0241C12.0727 13.6145 11.3027 13.9621 10.4885 13.993C9.67429 14.0239 8.88021 13.7355 8.27552 13.1894L8.16302 13.0819L6.83677 11.7556C6.72468 11.6432 6.6596 11.4922 6.65476 11.3335C6.64991 11.1748 6.70566 11.0202 6.81068 10.9011C6.9157 10.782 7.06212 10.7073 7.2202 10.6923C7.37827 10.6772 7.53615 10.7229 7.66177 10.82L7.72052 10.8719L9.04677 12.1981C9.39057 12.5439 9.85556 12.7422 10.3431 12.7509C10.8306 12.7595 11.3024 12.5779 11.6583 12.2446C12.0141 11.9112 12.2262 11.4523 12.2493 10.9653C12.2725 10.4782 12.105 10.0013 11.7824 9.63562L11.698 9.54625L9.93052 7.77875C9.75641 7.60461 9.5497 7.46647 9.32219 7.37222C9.09469 7.27797 8.85084 7.22946 8.60459 7.22946C8.35833 7.22946 8.11449 7.27797 7.88698 7.37222C7.65948 7.46647 7.45276 7.60461 7.27865 7.77875C7.16137 7.89594 7.00235 7.96175 6.83655 7.96169C6.67076 7.96163 6.51178 7.89571 6.39459 7.77844C6.27739 7.66116 6.21159 7.50213 6.21165 7.33634C6.21171 7.17055 6.27762 7.01157 6.3949 6.89437ZM2.4174 2.91687C2.98436 2.34996 3.74752 2.02264 4.54904 2.00263C5.35056 1.98262 6.12911 2.27145 6.72365 2.80937L6.83677 2.91687L8.1624 4.24375C8.27449 4.35622 8.33957 4.50715 8.34442 4.66586C8.34926 4.82458 8.29351 4.9792 8.18849 5.0983C8.08347 5.2174 7.93705 5.29207 7.77898 5.30712C7.6209 5.32218 7.46302 5.27651 7.3374 5.17937L7.27865 5.1275L5.95302 3.80187C5.60863 3.45972 5.14495 3.26449 4.65955 3.25723C4.17414 3.24998 3.70484 3.43128 3.35038 3.76299C2.99591 4.0947 2.78393 4.55096 2.75901 5.03579C2.73409 5.52061 2.89819 5.9962 3.21677 6.3625L3.30115 6.4525L5.06927 8.22062C5.42089 8.57213 5.89772 8.7696 6.3949 8.7696C6.89208 8.7696 7.36891 8.57213 7.72052 8.22062C7.77855 8.16255 7.84745 8.11648 7.92328 8.08504C7.99911 8.0536 8.0804 8.0374 8.16249 8.03737C8.24458 8.03734 8.32588 8.05348 8.40173 8.08487C8.47759 8.11626 8.54652 8.16228 8.60459 8.22031C8.66266 8.27834 8.70873 8.34724 8.74017 8.42307C8.77161 8.4989 8.78781 8.58019 8.78784 8.66228C8.78787 8.74437 8.77173 8.82567 8.74034 8.90152C8.70895 8.97738 8.66293 9.04631 8.6049 9.10437C8.03794 9.67129 7.27477 9.99861 6.47325 10.0186C5.67173 10.0386 4.89319 9.7498 4.29865 9.21187L4.1849 9.10437L2.4174 7.33625C1.83155 6.75023 1.50244 5.95551 1.50244 5.12687C1.50244 4.29824 1.83155 3.5029 2.4174 2.91687Z"
        fill="currentColor"/>
</svg>
