<svg width="15" height="16" viewBox="0 0 15 16" fill="none" xmlns="http://www.w3.org/2000/svg">
<path fill-rule="evenodd" clip-rule="evenodd" d="M7.5 1.75C8.99184 1.75 10.4226 2.34263 11.4775 3.39752C12.5324 4.45242 13.125 5.88316 13.125 7.375C13.125 9.29625 12.0775 10.8688 10.9738 11.9969C10.4222 12.5543 9.82049 13.0598 9.17625 13.5069L8.91 13.6881L8.785 13.7712L8.54938 13.9213L8.33938 14.0494L8.07938 14.2006C7.90282 14.3011 7.70316 14.354 7.5 14.354C7.29684 14.354 7.09718 14.3011 6.92062 14.2006L6.66062 14.0494L6.33563 13.8494L6.21562 13.7712L5.95937 13.6006C5.26436 13.1302 4.61692 12.5931 4.02625 11.9969C2.9225 10.8681 1.875 9.29625 1.875 7.375C1.875 5.88316 2.46763 4.45242 3.52252 3.39752C4.57742 2.34263 6.00816 1.75 7.5 1.75ZM7.5 3C6.33968 3 5.22688 3.46094 4.40641 4.28141C3.58594 5.10188 3.125 6.21468 3.125 7.375C3.125 8.82625 3.92 10.1 4.91937 11.1225C5.34914 11.5574 5.81359 11.9567 6.30813 12.3162L6.59437 12.52C6.68687 12.5844 6.77562 12.6444 6.86125 12.7L7.105 12.8563L7.31938 12.9869L7.5 13.0925L7.78438 12.9244L8.01375 12.7806C8.13562 12.7031 8.26688 12.6163 8.40563 12.52L8.69187 12.3162C9.18641 11.9567 9.65086 11.5574 10.0806 11.1225C11.08 10.1006 11.875 8.82625 11.875 7.375C11.875 6.21468 11.4141 5.10188 10.5936 4.28141C9.77312 3.46094 8.66032 3 7.5 3ZM7.5 4.875C8.16304 4.875 8.79893 5.13839 9.26777 5.60723C9.73661 6.07607 10 6.71196 10 7.375C10 8.03804 9.73661 8.67393 9.26777 9.14277C8.79893 9.61161 8.16304 9.875 7.5 9.875C6.83696 9.875 6.20107 9.61161 5.73223 9.14277C5.26339 8.67393 5 8.03804 5 7.375C5 6.71196 5.26339 6.07607 5.73223 5.60723C6.20107 5.13839 6.83696 4.875 7.5 4.875ZM7.5 6.125C7.16848 6.125 6.85054 6.2567 6.61612 6.49112C6.3817 6.72554 6.25 7.04348 6.25 7.375C6.25 7.70652 6.3817 8.02446 6.61612 8.25888C6.85054 8.4933 7.16848 8.625 7.5 8.625C7.83152 8.625 8.14946 8.4933 8.38388 8.25888C8.6183 8.02446 8.75 7.70652 8.75 7.375C8.75 7.04348 8.6183 6.72554 8.38388 6.49112C8.14946 6.2567 7.83152 6.125 7.5 6.125Z" fill="black"/>
</svg>
