<svg width="20" height="20" viewBox="0 0 20 20" fill="none" xmlns="http://www.w3.org/2000/svg">
<path fill-rule="evenodd" clip-rule="evenodd" d="M3.33311 10C3.33224 8.6456 3.80269 7.3331 4.66376 6.28765C5.52483 5.2422 6.72285 4.52896 8.05233 4.27028C9.3818 4.0116 10.7598 4.2236 11.9501 4.86992C13.1403 5.51623 14.0686 6.55658 14.5756 7.8125C14.6595 8.01591 14.8205 8.17789 15.0233 8.26309C15.2262 8.34829 15.4545 8.34979 15.6585 8.26728C15.8625 8.18476 16.0255 8.02492 16.1121 7.82264C16.1987 7.62035 16.2017 7.39203 16.1206 7.1875C15.7351 6.2264 15.1549 5.3555 14.4164 4.62962C13.6779 3.90374 12.7971 3.33861 11.8295 2.96978C10.8619 2.60096 9.82838 2.43643 8.79407 2.48657C7.75977 2.5367 6.74704 2.8004 5.81963 3.26107C4.89223 3.72175 4.07023 4.36942 3.40538 5.16331C2.74052 5.95721 2.24722 6.88015 1.95651 7.87402C1.66579 8.8679 1.58397 9.91119 1.7162 10.9382C1.84842 11.9653 2.19182 12.9538 2.72478 13.8417L2.07478 16.0492C2.03206 16.194 2.02917 16.3477 2.06643 16.4941C2.10368 16.6404 2.17971 16.774 2.28649 16.8808C2.39328 16.9876 2.52688 17.0636 2.67323 17.1009C2.81958 17.1381 2.97327 17.1352 3.11811 17.0925L5.32645 16.4425C6.21462 16.9738 7.20365 17.3143 8.23061 17.4425C8.44997 17.4699 8.67123 17.409 8.84572 17.2733C9.0202 17.1376 9.13363 16.9381 9.16103 16.7187C9.18844 16.4994 9.12758 16.2781 8.99185 16.1036C8.85612 15.9292 8.65664 15.8157 8.43728 15.7883C7.58293 15.682 6.76305 15.3865 6.03728 14.9233C5.89405 14.8317 5.73285 14.7718 5.56453 14.7476C5.39621 14.7235 5.22467 14.7356 5.06145 14.7833L4.10145 15.0658L4.38395 14.1058C4.48395 13.7658 4.42311 13.4108 4.24395 13.1308C3.64729 12.1958 3.33119 11.1092 3.33311 10ZM16.6664 13.75C16.6664 13.1028 16.4511 12.474 16.0544 11.9627C15.6578 11.4513 15.1023 11.0864 14.4755 10.9253C13.8487 10.7643 13.1861 10.8163 12.5921 11.0732C11.9981 11.3301 11.5064 11.7772 11.1944 12.3442C10.8824 12.9113 10.7679 13.5659 10.8688 14.2052C10.9697 14.8444 11.2804 15.432 11.7519 15.8753C12.2235 16.3186 12.829 16.5925 13.4733 16.6538C14.1175 16.7152 14.7639 16.5605 15.3106 16.2142C15.5357 16.071 15.8068 16.0189 16.0689 16.0683C16.0192 15.8063 16.0711 15.5352 16.2139 15.31C16.5103 14.8437 16.6673 14.3025 16.6664 13.75ZM13.7498 9.16667C14.5461 9.16661 15.3287 9.37401 16.0204 9.76845C16.7122 10.1629 17.2892 10.7307 17.6947 11.4161C18.1002 12.1014 18.3201 12.8805 18.3329 13.6767C18.3456 14.4729 18.1507 15.2587 17.7673 15.9567L18.0889 17.0492C18.1315 17.1935 18.1343 17.3467 18.0971 17.4926C18.06 17.6384 17.9842 17.7716 17.8778 17.878C17.7713 17.9844 17.6382 18.0602 17.4924 18.0974C17.3465 18.1345 17.1933 18.1317 17.0489 18.0892L15.9573 17.7675C15.3447 18.1039 14.6634 18.2957 13.9653 18.3283C13.2673 18.361 12.571 18.2336 11.9297 17.9558C11.2885 17.6781 10.7192 17.2574 10.2655 16.726C9.81173 16.1945 9.48552 15.5663 9.31179 14.8894C9.13807 14.2126 9.12142 13.5049 9.26312 12.8206C9.40482 12.1363 9.70113 11.4935 10.1294 10.9413C10.5576 10.389 11.1065 9.94205 11.734 9.63447C12.3615 9.3269 13.051 9.16689 13.7498 9.16667Z" fill="black"/>
</svg>
