<svg width="20" height="20" viewBox="0 0 20 20" fill="none" xmlns="http://www.w3.org/2000/svg">
<path d="M16.6667 7.49999C16.8877 7.49999 17.0996 7.58779 17.2559 7.74407C17.4122 7.90035 17.5 8.11231 17.5 8.33333V9.16666C17.5 10.9348 16.7976 12.6305 15.5474 13.8807C14.2971 15.1309 12.6014 15.8333 10.8333 15.8333H7.845L8.50583 16.4942C8.65763 16.6513 8.74163 16.8618 8.73973 17.0803C8.73783 17.2988 8.65019 17.5078 8.49568 17.6623C8.34118 17.8168 8.13216 17.9045 7.91367 17.9064C7.69517 17.9083 7.48467 17.8243 7.3275 17.6725L5.2475 15.5925C5.11837 15.4653 5.03438 15.2994 5.00833 15.12L5 14.9925C5.00136 14.7976 5.07128 14.6094 5.1975 14.4608L5.24417 14.4108L7.3275 12.3275C7.48467 12.1757 7.69517 12.0917 7.91367 12.0936C8.13216 12.0955 8.34118 12.1831 8.49568 12.3376C8.65019 12.4922 8.73783 12.7012 8.73973 12.9197C8.74163 13.1382 8.65763 13.3487 8.50583 13.5058L7.845 14.1667H10.8333C12.1594 14.1667 13.4312 13.6399 14.3689 12.7022C15.3065 11.7645 15.8333 10.4927 15.8333 9.16666V8.33333C15.8333 8.11231 15.9211 7.90035 16.0774 7.74407C16.2337 7.58779 16.4457 7.49999 16.6667 7.49999ZM12.6725 2.32749L14.7558 4.41083C14.9121 4.5671 14.9998 4.77902 14.9998 4.99999C14.9998 5.22096 14.9121 5.43289 14.7558 5.58916L12.6725 7.67249C12.5956 7.75209 12.5037 7.81557 12.402 7.85924C12.3003 7.90292 12.191 7.92591 12.0803 7.92687C11.9697 7.92783 11.86 7.90675 11.7575 7.86484C11.6551 7.82294 11.5621 7.76107 11.4838 7.68282C11.4056 7.60458 11.3437 7.51154 11.3018 7.40912C11.2599 7.30671 11.2388 7.19698 11.2398 7.08633C11.2408 6.97568 11.2637 6.86633 11.3074 6.76466C11.3511 6.66299 11.4146 6.57103 11.4942 6.49416L12.155 5.83333H9.16667C7.84058 5.83333 6.56881 6.36011 5.63113 7.29779C4.69345 8.23547 4.16667 9.50724 4.16667 10.8333V11.6667C4.16667 11.8877 4.07887 12.0996 3.92259 12.2559C3.76631 12.4122 3.55435 12.5 3.33333 12.5C3.11232 12.5 2.90036 12.4122 2.74408 12.2559C2.5878 12.0996 2.5 11.8877 2.5 11.6667V10.8333C2.5 9.06522 3.20238 7.36952 4.45262 6.11928C5.70286 4.86904 7.39856 4.16666 9.16667 4.16666H12.155L11.4942 3.50583C11.3424 3.34866 11.2584 3.13816 11.2603 2.91966C11.2622 2.70116 11.3498 2.49215 11.5043 2.33764C11.6588 2.18314 11.8678 2.0955 12.0863 2.0936C12.3048 2.0917 12.5153 2.17569 12.6725 2.32749Z" fill="black"/>
</svg>
